# xmcd
#
# Track frame offsets:
#	150
#	14105
#	30623
#	52202
#	67240
#	82756
#	99384
#	115780
#	130623
#	145281
#	162187
#	182668
#
# Disc length: 2616 seconds
#
# Revision: 0
# Processed by: cddbd v1.5.1PL0 Copyright (c) Steve Scherf et al.
# Submitted via: AudioConverter v4.05 Copyright (c) Dennis Rebentrost
#
DISCID=a20a360c
DTITLE=Miguel Cadenas - Miguel Cadenas
DYEAR=2004
DGENRE=Pop
TTITLE0=Devuelveme el alma
TTITLE1=No te dejo de querer
TTITLE2=Dejame entrar
TTITLE3=Amor de madrugada
TTITLE4=Condenado
TTITLE5=Tu jugastes conmigo
TTITLE6=Toda una vida
TTITLE7=Amor fugaz
TTITLE8=Tu me haces fuerte
TTITLE9=Lagrimas de hielo
TTITLE10=Como olvidarte
TTITLE11=Mueveme
EXTD=
EXTT0=
EXTT1=
EXTT2=
EXTT3=
EXTT4=
EXTT5=
EXTT6=
EXTT7=
EXTT8=
EXTT9=
EXTT10=
EXTT11=
PLAYORDER=
